<?xml version="1.0" standalone="no"?>
<svg xmlns:xlink="http://www.w3.org/1999/xlink" id="wave" style="transform:rotate(180deg); transition: 0.3s" viewBox="0 0 1440 490" version="1.1" xmlns="http://www.w3.org/2000/svg"><defs><linearGradient id="sw-gradient-0" x1="0" x2="0" y1="1" y2="0"><stop stop-color="rgba(255, 82, 11, 1)" offset="0%"/><stop stop-color="rgba(243, 106, 62, 1)" offset="100%"/></linearGradient></defs><path style="transform:translate(0, 0px); opacity:1" fill="url(#sw-gradient-0)" d="M0,245L80,212.3C160,180,320,114,480,106.2C640,98,800,147,960,196C1120,245,1280,294,1440,277.7C1600,261,1760,180,1920,122.5C2080,65,2240,33,2400,73.5C2560,114,2720,229,2880,285.8C3040,343,3200,343,3360,285.8C3520,229,3680,114,3840,57.2C4000,0,4160,0,4320,8.2C4480,16,4640,33,4800,81.7C4960,131,5120,212,5280,269.5C5440,327,5600,359,5760,334.8C5920,310,6080,229,6240,212.3C6400,196,6560,245,6720,277.7C6880,310,7040,327,7200,277.7C7360,229,7520,114,7680,106.2C7840,98,8000,196,8160,228.7C8320,261,8480,229,8640,204.2C8800,180,8960,163,9120,187.8C9280,212,9440,278,9600,253.2C9760,229,9920,114,10080,98C10240,82,10400,163,10560,171.5C10720,180,10880,114,11040,81.7C11200,49,11360,49,11440,49L11520,49L11520,490L11440,490C11360,490,11200,490,11040,490C10880,490,10720,490,10560,490C10400,490,10240,490,10080,490C9920,490,9760,490,9600,490C9440,490,9280,490,9120,490C8960,490,8800,490,8640,490C8480,490,8320,490,8160,490C8000,490,7840,490,7680,490C7520,490,7360,490,7200,490C7040,490,6880,490,6720,490C6560,490,6400,490,6240,490C6080,490,5920,490,5760,490C5600,490,5440,490,5280,490C5120,490,4960,490,4800,490C4640,490,4480,490,4320,490C4160,490,4000,490,3840,490C3680,490,3520,490,3360,490C3200,490,3040,490,2880,490C2720,490,2560,490,2400,490C2240,490,2080,490,1920,490C1760,490,1600,490,1440,490C1280,490,1120,490,960,490C800,490,640,490,480,490C320,490,160,490,80,490L0,490Z"/></svg>